<?xml version="1.0" encoding="UTF-8"?>
<svg version="1.1" xmlns="http://www.w3.org/2000/svg" viewBox="120 86 160 212">
<path d="M0 0 C3.6695036 3.2893298 5.88370205 6.87442777 8.25 11.125 C8.61351562 11.75792969 8.97703125 12.39085938 9.3515625 13.04296875 C12 17.7324953 12 17.7324953 12 20 C-13.12903226 33 -13.12903226 33 -19 33 C-19 80.85 -19 128.7 -19 178 C-16.03 178.66 -13.06 179.32 -10 180 C-6.22014523 181.41398529 -2.63059977 183.1780555 1 184.9375 C1.95261719 185.38029297 2.90523437 185.82308594 3.88671875 186.27929688 C4.79035156 186.71177734 5.69398438 187.14425781 6.625 187.58984375 C7.44226563 187.98034912 8.25953125 188.37085449 9.1015625 188.77319336 C11 190 11 190 12 193 C11.19555664 194.90112305 11.19555664 194.90112305 9.91015625 197.01171875 C9.45576172 197.76904297 9.00136719 198.52636719 8.53320312 199.30664062 C8.04787109 200.09232422 7.56253906 200.87800781 7.0625 201.6875 C6.58103516 202.48478516 6.09957031 203.28207031 5.60351562 204.10351562 C4.41134561 206.07472743 3.2099739 208.03968412 2 210 C-1.87377679 209.48597962 -4.95034329 208.13628138 -8.41674805 206.37158203 C-35.81779665 192.44145794 -68.10477897 188.93653506 -98 196 C-98.68932617 196.16097168 -99.37865234 196.32194336 -100.08886719 196.48779297 C-112.36437053 199.47209913 -123.62920048 204.5778214 -135 210 C-136.46295997 207.60688647 -137.9204522 205.21071914 -139.375 202.8125 C-139.7875 202.13896484 -140.2 201.46542969 -140.625 200.77148438 C-141.22441406 199.78051758 -141.22441406 199.78051758 -141.8359375 198.76953125 C-142.20251465 198.16729736 -142.5690918 197.56506348 -142.94677734 196.94458008 C-144.16535182 194.69470857 -145.08787634 192.38846611 -146 190 C-142.69180248 188.38685212 -139.3777091 186.78618232 -136.0625 185.1875 C-135.13630859 184.73568359 -134.21011719 184.28386719 -133.25585938 183.81835938 C-132.33740234 183.37685547 -131.41894531 182.93535156 -130.47265625 182.48046875 C-129.64000244 182.07723389 -128.80734863 181.67399902 -127.94946289 181.25854492 C-124.06019629 179.59898286 -120.01154419 178.3371814 -116 177 C-115.67 129.48 -115.34 81.96 -115 33 C-117.97 32.34 -120.94 31.68 -124 31 C-127.19529385 29.90093605 -130.23574905 28.51951728 -133.3125 27.125 C-134.4890918 26.61646484 -134.4890918 26.61646484 -135.68945312 26.09765625 C-139.84077268 24.24243613 -143.0213365 22.56161909 -146 19 C-144.44091287 16.15266146 -142.84895245 13.32511542 -141.25 10.5 C-140.8065625 9.68917969 -140.363125 8.87835938 -139.90625 8.04296875 C-139.46796875 7.27597656 -139.0296875 6.50898437 -138.578125 5.71875 C-137.98112793 4.65043945 -137.98112793 4.65043945 -137.37207031 3.56054688 C-136.91928711 3.04556641 -136.46650391 2.53058594 -136 2 C-132.36305187 2 -131.31092899 2.09802145 -128.26953125 3.57421875 C-127.55812988 3.90977783 -126.84672852 4.24533691 -126.11376953 4.59106445 C-125.35435059 4.95288818 -124.59493164 5.31471191 -123.8125 5.6875 C-91.32374117 20.54784386 -54.66902246 22.30214282 -21 10 C-13.75962547 7.171128 -6.59169361 4.15125742 0 0 Z M-93 39 C-93 82.89 -93 126.78 -93 172 C-89.37 171.67 -85.74 171.34 -82 171 C-79.66895795 170.91892826 -77.33635641 170.8696213 -75.00390625 170.8671875 C-73.78509766 170.86589844 -72.56628906 170.86460937 -71.31054688 170.86328125 C-69.45526367 170.86908203 -69.45526367 170.86908203 -67.5625 170.875 C-66.32951172 170.87113281 -65.09652344 170.86726562 -63.82617188 170.86328125 C-61.99602539 170.86521484 -61.99602539 170.86521484 -60.12890625 170.8671875 C-59.04681885 170.86831543 -57.96473145 170.86944336 -56.84985352 170.87060547 C-51.5561625 171.04852774 -46.27838417 171.56013465 -41 172 C-41 128.11 -41 84.22 -41 39 C-48.92 39.495 -48.92 39.495 -57 40 C-60.53054985 40.08330236 -64.03450233 40.1420572 -67.5625 40.125 C-68.7680957 40.13080078 -68.7680957 40.13080078 -69.99804688 40.13671875 C-77.72819498 40.12466864 -85.23542334 39.51763844 -93 39 Z " fill="#000000" transform="translate(267,87)"/>
</svg>
